<mxfile host="www.draw.io" modified="2020-02-07T03:52:07.900Z" agent="Mozilla/5.0 (Macintosh; Intel Mac OS X 10_11_6) AppleWebKit/537.36 (KHTML, like Gecko) Chrome/79.0.3945.130 Safari/537.36" etag="vgFJqI_W7OqHw0ajVJPd" version="12.6.5" type="github" pages="3">
  <diagram id="j9vJGMcmzGPHkwokhbha" name="第 1 页">
    <mxGraphModel dx="1654" dy="850" grid="1" gridSize="10" guides="1" tooltips="1" connect="1" arrows="1" fold="1" page="1" pageScale="1" pageWidth="827" pageHeight="1169" math="0" shadow="0">
      <root>
        <mxCell id="0"/>
        <mxCell id="1" parent="0"/>
        <mxCell id="oarHkm9BdGFIHyI6MukR-3" value="" style="edgeStyle=orthogonalEdgeStyle;rounded=0;orthogonalLoop=1;jettySize=auto;html=1;" edge="1" parent="1" source="oarHkm9BdGFIHyI6MukR-1" target="oarHkm9BdGFIHyI6MukR-2">
          <mxGeometry relative="1" as="geometry"/>
        </mxCell>
        <mxCell id="oarHkm9BdGFIHyI6MukR-1" value="Coord ApiServer" style="rounded=1;whiteSpace=wrap;html=1;" vertex="1" parent="1">
          <mxGeometry x="260" y="200" width="120" height="60" as="geometry"/>
        </mxCell>
        <mxCell id="oarHkm9BdGFIHyI6MukR-2" value="Coord&lt;br&gt;Etcd" style="shape=cylinder;whiteSpace=wrap;html=1;boundedLbl=1;backgroundOutline=1;" vertex="1" parent="1">
          <mxGeometry x="290" y="90" width="60" height="80" as="geometry"/>
        </mxCell>
        <mxCell id="oarHkm9BdGFIHyI6MukR-4" value="Coord Scheduler" style="rounded=1;whiteSpace=wrap;html=1;" vertex="1" parent="1">
          <mxGeometry x="90" y="200" width="120" height="60" as="geometry"/>
        </mxCell>
        <mxCell id="oarHkm9BdGFIHyI6MukR-5" value="Coord Controllers" style="rounded=1;whiteSpace=wrap;html=1;" vertex="1" parent="1">
          <mxGeometry x="430" y="200" width="120" height="60" as="geometry"/>
        </mxCell>
        <mxCell id="oarHkm9BdGFIHyI6MukR-6" value="Mpc Job &lt;br&gt;Controller" style="rounded=1;whiteSpace=wrap;html=1;" vertex="1" parent="1">
          <mxGeometry x="950" y="60" width="120" height="60" as="geometry"/>
        </mxCell>
        <mxCell id="oarHkm9BdGFIHyI6MukR-7" value="Mpc Model &lt;br&gt;Controller" style="rounded=1;whiteSpace=wrap;html=1;" vertex="1" parent="1">
          <mxGeometry x="950" y="140" width="120" height="60" as="geometry"/>
        </mxCell>
        <mxCell id="oarHkm9BdGFIHyI6MukR-8" value="Mpc Gateway Controller" style="rounded=1;whiteSpace=wrap;html=1;" vertex="1" parent="1">
          <mxGeometry x="950" y="220" width="120" height="60" as="geometry"/>
        </mxCell>
        <mxCell id="oarHkm9BdGFIHyI6MukR-9" value="Mpc XXX&lt;br&gt;&amp;nbsp;Controller" style="rounded=1;whiteSpace=wrap;html=1;" vertex="1" parent="1">
          <mxGeometry x="950" y="300" width="120" height="60" as="geometry"/>
        </mxCell>
        <mxCell id="oarHkm9BdGFIHyI6MukR-10" value="Coord Kubelet" style="rounded=1;whiteSpace=wrap;html=1;" vertex="1" parent="1">
          <mxGeometry x="30" y="470" width="120" height="60" as="geometry"/>
        </mxCell>
        <mxCell id="oarHkm9BdGFIHyI6MukR-11" value="Gateway" style="rounded=1;whiteSpace=wrap;html=1;" vertex="1" parent="1">
          <mxGeometry x="170" y="470" width="120" height="60" as="geometry"/>
        </mxCell>
        <mxCell id="oarHkm9BdGFIHyI6MukR-12" value="Pod" style="rounded=1;whiteSpace=wrap;html=1;" vertex="1" parent="1">
          <mxGeometry x="30" y="550" width="120" height="60" as="geometry"/>
        </mxCell>
        <mxCell id="oarHkm9BdGFIHyI6MukR-13" value="Pod" style="rounded=1;whiteSpace=wrap;html=1;" vertex="1" parent="1">
          <mxGeometry x="170" y="550" width="120" height="60" as="geometry"/>
        </mxCell>
        <mxCell id="oarHkm9BdGFIHyI6MukR-28" value="Coord Kubelet" style="rounded=1;whiteSpace=wrap;html=1;" vertex="1" parent="1">
          <mxGeometry x="380" y="470" width="120" height="60" as="geometry"/>
        </mxCell>
        <mxCell id="oarHkm9BdGFIHyI6MukR-29" value="Gateway" style="rounded=1;whiteSpace=wrap;html=1;" vertex="1" parent="1">
          <mxGeometry x="520" y="470" width="120" height="60" as="geometry"/>
        </mxCell>
        <mxCell id="oarHkm9BdGFIHyI6MukR-30" value="Pod" style="rounded=1;whiteSpace=wrap;html=1;" vertex="1" parent="1">
          <mxGeometry x="380" y="550" width="120" height="60" as="geometry"/>
        </mxCell>
        <mxCell id="oarHkm9BdGFIHyI6MukR-31" value="Pod" style="rounded=1;whiteSpace=wrap;html=1;" vertex="1" parent="1">
          <mxGeometry x="520" y="550" width="120" height="60" as="geometry"/>
        </mxCell>
      </root>
    </mxGraphModel>
  </diagram>
  <diagram id="UPJOPiU2IkBFESNoCm28" name="第 2 页">
    <mxGraphModel dx="978" dy="561" grid="1" gridSize="10" guides="1" tooltips="1" connect="1" arrows="1" fold="1" page="1" pageScale="1" pageWidth="827" pageHeight="1169" math="0" shadow="0">
      <root>
        <mxCell id="HrCekkVRfHCn1H9H5KcD-0"/>
        <mxCell id="HrCekkVRfHCn1H9H5KcD-1" parent="HrCekkVRfHCn1H9H5KcD-0"/>
        <mxCell id="AAgKK8RnCiZGKqH9abVC-79" value="" style="rounded=0;whiteSpace=wrap;html=1;fillColor=#eeeeee;strokeColor=#36393d;" vertex="1" parent="HrCekkVRfHCn1H9H5KcD-1">
          <mxGeometry x="140" y="110" width="630" height="240" as="geometry"/>
        </mxCell>
        <mxCell id="AAgKK8RnCiZGKqH9abVC-49" value="" style="rounded=0;whiteSpace=wrap;html=1;" vertex="1" parent="HrCekkVRfHCn1H9H5KcD-1">
          <mxGeometry x="490" y="170" width="270" height="170" as="geometry"/>
        </mxCell>
        <mxCell id="AAgKK8RnCiZGKqH9abVC-0" value="" style="edgeStyle=orthogonalEdgeStyle;rounded=0;orthogonalLoop=1;jettySize=auto;html=1;" edge="1" parent="HrCekkVRfHCn1H9H5KcD-1" source="AAgKK8RnCiZGKqH9abVC-1" target="AAgKK8RnCiZGKqH9abVC-2">
          <mxGeometry relative="1" as="geometry"/>
        </mxCell>
        <mxCell id="AAgKK8RnCiZGKqH9abVC-1" value="Coord ApiServer" style="rounded=1;whiteSpace=wrap;html=1;" vertex="1" parent="HrCekkVRfHCn1H9H5KcD-1">
          <mxGeometry x="320" y="230" width="120" height="60" as="geometry"/>
        </mxCell>
        <mxCell id="AAgKK8RnCiZGKqH9abVC-2" value="Coord&lt;br&gt;Etcd" style="shape=cylinder;whiteSpace=wrap;html=1;boundedLbl=1;backgroundOutline=1;" vertex="1" parent="HrCekkVRfHCn1H9H5KcD-1">
          <mxGeometry x="350" y="120" width="60" height="80" as="geometry"/>
        </mxCell>
        <mxCell id="AAgKK8RnCiZGKqH9abVC-18" value="" style="edgeStyle=orthogonalEdgeStyle;rounded=0;orthogonalLoop=1;jettySize=auto;html=1;" edge="1" parent="HrCekkVRfHCn1H9H5KcD-1" source="AAgKK8RnCiZGKqH9abVC-3" target="AAgKK8RnCiZGKqH9abVC-1">
          <mxGeometry relative="1" as="geometry"/>
        </mxCell>
        <mxCell id="AAgKK8RnCiZGKqH9abVC-3" value="Coord Scheduler" style="rounded=1;whiteSpace=wrap;html=1;" vertex="1" parent="HrCekkVRfHCn1H9H5KcD-1">
          <mxGeometry x="150" y="230" width="120" height="60" as="geometry"/>
        </mxCell>
        <mxCell id="AAgKK8RnCiZGKqH9abVC-17" value="" style="edgeStyle=orthogonalEdgeStyle;rounded=0;orthogonalLoop=1;jettySize=auto;html=1;" edge="1" parent="HrCekkVRfHCn1H9H5KcD-1" target="AAgKK8RnCiZGKqH9abVC-1">
          <mxGeometry relative="1" as="geometry">
            <mxPoint x="489.9999999999998" y="260" as="sourcePoint"/>
          </mxGeometry>
        </mxCell>
        <mxCell id="AAgKK8RnCiZGKqH9abVC-5" value="Mpc Job &lt;br&gt;Controller" style="rounded=1;whiteSpace=wrap;html=1;" vertex="1" parent="HrCekkVRfHCn1H9H5KcD-1">
          <mxGeometry x="498.5" y="192.99999999999994" width="120" height="60" as="geometry"/>
        </mxCell>
        <mxCell id="AAgKK8RnCiZGKqH9abVC-6" value="Mpc Model &lt;br&gt;Controller" style="rounded=1;whiteSpace=wrap;html=1;" vertex="1" parent="HrCekkVRfHCn1H9H5KcD-1">
          <mxGeometry x="631.5" y="192.99999999999994" width="120" height="60" as="geometry"/>
        </mxCell>
        <mxCell id="AAgKK8RnCiZGKqH9abVC-7" value="Gateway &lt;br&gt;Controller" style="rounded=1;whiteSpace=wrap;html=1;fillColor=#ffff88;strokeColor=#36393d;" vertex="1" parent="HrCekkVRfHCn1H9H5KcD-1">
          <mxGeometry x="498.5" y="266.99999999999994" width="120" height="60" as="geometry"/>
        </mxCell>
        <mxCell id="AAgKK8RnCiZGKqH9abVC-8" value="Mpc XXX&lt;br&gt;&amp;nbsp;Controller" style="rounded=1;whiteSpace=wrap;html=1;" vertex="1" parent="HrCekkVRfHCn1H9H5KcD-1">
          <mxGeometry x="631.5" y="266.99999999999994" width="120" height="60" as="geometry"/>
        </mxCell>
        <mxCell id="AAgKK8RnCiZGKqH9abVC-32" value="" style="rounded=0;whiteSpace=wrap;html=1;fillColor=#f5f5f5;strokeColor=#666666;fontColor=#333333;" vertex="1" parent="HrCekkVRfHCn1H9H5KcD-1">
          <mxGeometry x="430" y="440" width="320" height="220" as="geometry"/>
        </mxCell>
        <mxCell id="AAgKK8RnCiZGKqH9abVC-43" style="edgeStyle=orthogonalEdgeStyle;rounded=0;orthogonalLoop=1;jettySize=auto;html=1;exitX=1;exitY=0.5;exitDx=0;exitDy=0;entryX=1;entryY=0.5;entryDx=0;entryDy=0;startArrow=none;startFill=0;" edge="1" parent="HrCekkVRfHCn1H9H5KcD-1" source="AAgKK8RnCiZGKqH9abVC-33" target="AAgKK8RnCiZGKqH9abVC-39">
          <mxGeometry relative="1" as="geometry"/>
        </mxCell>
        <mxCell id="AAgKK8RnCiZGKqH9abVC-44" style="edgeStyle=orthogonalEdgeStyle;rounded=0;orthogonalLoop=1;jettySize=auto;html=1;exitX=1;exitY=0.5;exitDx=0;exitDy=0;entryX=0.5;entryY=1;entryDx=0;entryDy=0;startArrow=none;startFill=0;" edge="1" parent="HrCekkVRfHCn1H9H5KcD-1" source="AAgKK8RnCiZGKqH9abVC-33" target="AAgKK8RnCiZGKqH9abVC-36">
          <mxGeometry relative="1" as="geometry">
            <Array as="points">
              <mxPoint x="730" y="484"/>
              <mxPoint x="730" y="630"/>
              <mxPoint x="510" y="630"/>
            </Array>
          </mxGeometry>
        </mxCell>
        <mxCell id="AAgKK8RnCiZGKqH9abVC-46" style="edgeStyle=orthogonalEdgeStyle;rounded=0;orthogonalLoop=1;jettySize=auto;html=1;exitX=0.5;exitY=0;exitDx=0;exitDy=0;entryX=0.5;entryY=1;entryDx=0;entryDy=0;startArrow=none;startFill=0;" edge="1" parent="HrCekkVRfHCn1H9H5KcD-1" source="AAgKK8RnCiZGKqH9abVC-33" target="AAgKK8RnCiZGKqH9abVC-1">
          <mxGeometry relative="1" as="geometry"/>
        </mxCell>
        <mxCell id="AAgKK8RnCiZGKqH9abVC-33" value="Coord Kubelet" style="rounded=1;whiteSpace=wrap;html=1;" vertex="1" parent="HrCekkVRfHCn1H9H5KcD-1">
          <mxGeometry x="590" y="454.28999999999996" width="120" height="60" as="geometry"/>
        </mxCell>
        <mxCell id="AAgKK8RnCiZGKqH9abVC-45" style="edgeStyle=orthogonalEdgeStyle;rounded=0;orthogonalLoop=1;jettySize=auto;html=1;exitX=0.5;exitY=0;exitDx=0;exitDy=0;entryX=0.5;entryY=1;entryDx=0;entryDy=0;startArrow=none;startFill=0;" edge="1" parent="HrCekkVRfHCn1H9H5KcD-1" source="AAgKK8RnCiZGKqH9abVC-34" target="AAgKK8RnCiZGKqH9abVC-1">
          <mxGeometry relative="1" as="geometry"/>
        </mxCell>
        <mxCell id="AAgKK8RnCiZGKqH9abVC-34" value="Gateway" style="rounded=1;whiteSpace=wrap;html=1;fillColor=#ffff88;strokeColor=#36393d;" vertex="1" parent="HrCekkVRfHCn1H9H5KcD-1">
          <mxGeometry x="450" y="454.28999999999996" width="120" height="60" as="geometry"/>
        </mxCell>
        <mxCell id="AAgKK8RnCiZGKqH9abVC-35" style="edgeStyle=orthogonalEdgeStyle;rounded=0;orthogonalLoop=1;jettySize=auto;html=1;exitX=0.5;exitY=0;exitDx=0;exitDy=0;entryX=0.5;entryY=1;entryDx=0;entryDy=0;startArrow=classic;startFill=1;" edge="1" parent="HrCekkVRfHCn1H9H5KcD-1" source="AAgKK8RnCiZGKqH9abVC-36" target="AAgKK8RnCiZGKqH9abVC-34">
          <mxGeometry relative="1" as="geometry"/>
        </mxCell>
        <mxCell id="AAgKK8RnCiZGKqH9abVC-36" value="Mpc Pod" style="rounded=1;whiteSpace=wrap;html=1;" vertex="1" parent="HrCekkVRfHCn1H9H5KcD-1">
          <mxGeometry x="450" y="554.12" width="120" height="60" as="geometry"/>
        </mxCell>
        <mxCell id="AAgKK8RnCiZGKqH9abVC-38" style="edgeStyle=orthogonalEdgeStyle;rounded=0;orthogonalLoop=1;jettySize=auto;html=1;exitX=0.5;exitY=0;exitDx=0;exitDy=0;entryX=0.5;entryY=1;entryDx=0;entryDy=0;startArrow=classic;startFill=1;" edge="1" parent="HrCekkVRfHCn1H9H5KcD-1" source="AAgKK8RnCiZGKqH9abVC-39" target="AAgKK8RnCiZGKqH9abVC-34">
          <mxGeometry relative="1" as="geometry"/>
        </mxCell>
        <mxCell id="AAgKK8RnCiZGKqH9abVC-39" value="Mpc Pod" style="rounded=1;whiteSpace=wrap;html=1;" vertex="1" parent="HrCekkVRfHCn1H9H5KcD-1">
          <mxGeometry x="590" y="554.12" width="120" height="60" as="geometry"/>
        </mxCell>
        <mxCell id="AAgKK8RnCiZGKqH9abVC-20" style="edgeStyle=orthogonalEdgeStyle;rounded=0;orthogonalLoop=1;jettySize=auto;html=1;exitX=0.5;exitY=0;exitDx=0;exitDy=0;entryX=0.5;entryY=1;entryDx=0;entryDy=0;" edge="1" parent="HrCekkVRfHCn1H9H5KcD-1" source="AAgKK8RnCiZGKqH9abVC-9" target="AAgKK8RnCiZGKqH9abVC-1">
          <mxGeometry relative="1" as="geometry"/>
        </mxCell>
        <mxCell id="AAgKK8RnCiZGKqH9abVC-53" value="1" style="text;html=1;strokeColor=none;fillColor=none;align=center;verticalAlign=middle;whiteSpace=wrap;rounded=0;" vertex="1" parent="HrCekkVRfHCn1H9H5KcD-1">
          <mxGeometry x="380" y="208" width="30" height="20" as="geometry"/>
        </mxCell>
        <mxCell id="AAgKK8RnCiZGKqH9abVC-54" value="2" style="text;html=1;strokeColor=none;fillColor=none;align=center;verticalAlign=middle;whiteSpace=wrap;rounded=0;" vertex="1" parent="HrCekkVRfHCn1H9H5KcD-1">
          <mxGeometry x="450" y="240" width="30" height="20" as="geometry"/>
        </mxCell>
        <mxCell id="AAgKK8RnCiZGKqH9abVC-57" value="3" style="text;html=1;strokeColor=none;fillColor=none;align=center;verticalAlign=middle;whiteSpace=wrap;rounded=0;" vertex="1" parent="HrCekkVRfHCn1H9H5KcD-1">
          <mxGeometry x="280" y="240" width="30" height="20" as="geometry"/>
        </mxCell>
        <mxCell id="AAgKK8RnCiZGKqH9abVC-58" value="4" style="text;html=1;strokeColor=none;fillColor=none;align=center;verticalAlign=middle;whiteSpace=wrap;rounded=0;" vertex="1" parent="HrCekkVRfHCn1H9H5KcD-1">
          <mxGeometry x="130" y="400" width="30" height="20" as="geometry"/>
        </mxCell>
        <mxCell id="AAgKK8RnCiZGKqH9abVC-61" value="6" style="text;html=1;strokeColor=none;fillColor=none;align=center;verticalAlign=middle;whiteSpace=wrap;rounded=0;" vertex="1" parent="HrCekkVRfHCn1H9H5KcD-1">
          <mxGeometry x="270" y="400" width="30" height="20" as="geometry"/>
        </mxCell>
        <mxCell id="AAgKK8RnCiZGKqH9abVC-63" value="8" style="text;html=1;strokeColor=none;fillColor=none;align=center;verticalAlign=middle;whiteSpace=wrap;rounded=0;" vertex="1" parent="HrCekkVRfHCn1H9H5KcD-1">
          <mxGeometry x="369" y="465" width="30" height="20" as="geometry"/>
        </mxCell>
        <mxCell id="AAgKK8RnCiZGKqH9abVC-65" value="Coord Controllers" style="text;html=1;strokeColor=none;fillColor=none;align=center;verticalAlign=middle;whiteSpace=wrap;rounded=0;" vertex="1" parent="HrCekkVRfHCn1H9H5KcD-1">
          <mxGeometry x="575" y="170" width="100" height="20" as="geometry"/>
        </mxCell>
        <mxCell id="AAgKK8RnCiZGKqH9abVC-19" value="" style="rounded=0;whiteSpace=wrap;html=1;fillColor=#f5f5f5;strokeColor=#666666;fontColor=#333333;" vertex="1" parent="HrCekkVRfHCn1H9H5KcD-1">
          <mxGeometry x="30" y="440" width="320" height="220" as="geometry"/>
        </mxCell>
        <mxCell id="AAgKK8RnCiZGKqH9abVC-9" value="Coord Kubelet" style="rounded=1;whiteSpace=wrap;html=1;" vertex="1" parent="HrCekkVRfHCn1H9H5KcD-1">
          <mxGeometry x="70" y="454.28999999999996" width="120" height="60" as="geometry"/>
        </mxCell>
        <mxCell id="AAgKK8RnCiZGKqH9abVC-10" value="Gateway" style="rounded=1;whiteSpace=wrap;html=1;fillColor=#ffff88;strokeColor=#36393d;" vertex="1" parent="HrCekkVRfHCn1H9H5KcD-1">
          <mxGeometry x="210" y="454.28999999999996" width="120" height="60" as="geometry"/>
        </mxCell>
        <mxCell id="AAgKK8RnCiZGKqH9abVC-29" style="edgeStyle=orthogonalEdgeStyle;rounded=0;orthogonalLoop=1;jettySize=auto;html=1;exitX=0.5;exitY=0;exitDx=0;exitDy=0;entryX=0.5;entryY=1;entryDx=0;entryDy=0;startArrow=classic;startFill=1;" edge="1" parent="HrCekkVRfHCn1H9H5KcD-1" source="AAgKK8RnCiZGKqH9abVC-11" target="AAgKK8RnCiZGKqH9abVC-10">
          <mxGeometry relative="1" as="geometry"/>
        </mxCell>
        <mxCell id="AAgKK8RnCiZGKqH9abVC-11" value="Mpc Pod" style="rounded=1;whiteSpace=wrap;html=1;" vertex="1" parent="HrCekkVRfHCn1H9H5KcD-1">
          <mxGeometry x="70" y="554.12" width="120" height="60" as="geometry"/>
        </mxCell>
        <mxCell id="AAgKK8RnCiZGKqH9abVC-24" style="edgeStyle=orthogonalEdgeStyle;rounded=0;orthogonalLoop=1;jettySize=auto;html=1;exitX=0;exitY=0.5;exitDx=0;exitDy=0;entryX=0;entryY=0.5;entryDx=0;entryDy=0;" edge="1" parent="HrCekkVRfHCn1H9H5KcD-1" source="AAgKK8RnCiZGKqH9abVC-9" target="AAgKK8RnCiZGKqH9abVC-11">
          <mxGeometry relative="1" as="geometry"/>
        </mxCell>
        <mxCell id="AAgKK8RnCiZGKqH9abVC-28" style="edgeStyle=orthogonalEdgeStyle;rounded=0;orthogonalLoop=1;jettySize=auto;html=1;exitX=0.5;exitY=0;exitDx=0;exitDy=0;entryX=0.5;entryY=1;entryDx=0;entryDy=0;startArrow=classic;startFill=1;" edge="1" parent="HrCekkVRfHCn1H9H5KcD-1" source="AAgKK8RnCiZGKqH9abVC-12" target="AAgKK8RnCiZGKqH9abVC-10">
          <mxGeometry relative="1" as="geometry"/>
        </mxCell>
        <mxCell id="AAgKK8RnCiZGKqH9abVC-12" value="Mpc Pod" style="rounded=1;whiteSpace=wrap;html=1;" vertex="1" parent="HrCekkVRfHCn1H9H5KcD-1">
          <mxGeometry x="210" y="554.12" width="120" height="60" as="geometry"/>
        </mxCell>
        <mxCell id="AAgKK8RnCiZGKqH9abVC-25" style="edgeStyle=orthogonalEdgeStyle;rounded=0;orthogonalLoop=1;jettySize=auto;html=1;exitX=0;exitY=0.5;exitDx=0;exitDy=0;entryX=0.5;entryY=1;entryDx=0;entryDy=0;" edge="1" parent="HrCekkVRfHCn1H9H5KcD-1" source="AAgKK8RnCiZGKqH9abVC-9" target="AAgKK8RnCiZGKqH9abVC-12">
          <mxGeometry relative="1" as="geometry">
            <Array as="points">
              <mxPoint x="50" y="484"/>
              <mxPoint x="50" y="630"/>
              <mxPoint x="270" y="630"/>
            </Array>
          </mxGeometry>
        </mxCell>
        <mxCell id="AAgKK8RnCiZGKqH9abVC-60" value="5" style="text;html=1;strokeColor=none;fillColor=none;align=center;verticalAlign=middle;whiteSpace=wrap;rounded=0;" vertex="1" parent="HrCekkVRfHCn1H9H5KcD-1">
          <mxGeometry x="50" y="534.12" width="30" height="20" as="geometry"/>
        </mxCell>
        <mxCell id="AAgKK8RnCiZGKqH9abVC-62" value="7" style="text;html=1;strokeColor=none;fillColor=none;align=center;verticalAlign=middle;whiteSpace=wrap;rounded=0;" vertex="1" parent="HrCekkVRfHCn1H9H5KcD-1">
          <mxGeometry x="270" y="525" width="30" height="20" as="geometry"/>
        </mxCell>
        <mxCell id="AAgKK8RnCiZGKqH9abVC-80" value="Institution Node/Worker" style="text;html=1;strokeColor=none;fillColor=none;align=center;verticalAlign=middle;whiteSpace=wrap;rounded=0;" vertex="1" parent="HrCekkVRfHCn1H9H5KcD-1">
          <mxGeometry x="130" y="637" width="120" height="20" as="geometry"/>
        </mxCell>
        <mxCell id="AAgKK8RnCiZGKqH9abVC-81" value="Institution Node/Worker" style="text;html=1;strokeColor=none;fillColor=none;align=center;verticalAlign=middle;whiteSpace=wrap;rounded=0;" vertex="1" parent="HrCekkVRfHCn1H9H5KcD-1">
          <mxGeometry x="530" y="637" width="120" height="20" as="geometry"/>
        </mxCell>
        <mxCell id="AAgKK8RnCiZGKqH9abVC-47" style="edgeStyle=orthogonalEdgeStyle;rounded=0;orthogonalLoop=1;jettySize=auto;html=1;exitX=1;exitY=0.5;exitDx=0;exitDy=0;entryX=0;entryY=0.5;entryDx=0;entryDy=0;startArrow=classic;startFill=1;" edge="1" parent="HrCekkVRfHCn1H9H5KcD-1" source="AAgKK8RnCiZGKqH9abVC-10" target="AAgKK8RnCiZGKqH9abVC-34">
          <mxGeometry relative="1" as="geometry"/>
        </mxCell>
        <mxCell id="AAgKK8RnCiZGKqH9abVC-21" style="edgeStyle=orthogonalEdgeStyle;rounded=0;orthogonalLoop=1;jettySize=auto;html=1;exitX=0.5;exitY=0;exitDx=0;exitDy=0;entryX=0.5;entryY=1;entryDx=0;entryDy=0;" edge="1" parent="HrCekkVRfHCn1H9H5KcD-1" source="AAgKK8RnCiZGKqH9abVC-10" target="AAgKK8RnCiZGKqH9abVC-1">
          <mxGeometry relative="1" as="geometry"/>
        </mxCell>
      </root>
    </mxGraphModel>
  </diagram>
  <diagram id="VhdJRW6rNsOhwS3SvcU0" name="第 3 页">
    <mxGraphModel dx="3157" dy="992" grid="1" gridSize="10" guides="1" tooltips="1" connect="1" arrows="1" fold="1" page="1" pageScale="1" pageWidth="827" pageHeight="1169" math="0" shadow="0">
      <root>
        <mxCell id="dIhKAnvwAG0ssE9U2dhF-0"/>
        <mxCell id="dIhKAnvwAG0ssE9U2dhF-1" parent="dIhKAnvwAG0ssE9U2dhF-0"/>
        <mxCell id="kNOLw_CiE20GCa9g5N1f-10" value="" style="rounded=0;whiteSpace=wrap;html=1;fillColor=#eeeeee;strokeColor=#36393d;" vertex="1" parent="dIhKAnvwAG0ssE9U2dhF-1">
          <mxGeometry x="-210" y="510" width="760" height="370" as="geometry"/>
        </mxCell>
        <mxCell id="m26kmbvSqdJI-3uwm8WV-0" value="" style="rounded=0;whiteSpace=wrap;html=1;fillColor=#eeeeee;strokeColor=#36393d;" vertex="1" parent="dIhKAnvwAG0ssE9U2dhF-1">
          <mxGeometry x="520" y="150" width="460" height="240" as="geometry"/>
        </mxCell>
        <mxCell id="m26kmbvSqdJI-3uwm8WV-1" value="" style="rounded=0;whiteSpace=wrap;html=1;" vertex="1" parent="dIhKAnvwAG0ssE9U2dhF-1">
          <mxGeometry x="700" y="210" width="270" height="170" as="geometry"/>
        </mxCell>
        <mxCell id="m26kmbvSqdJI-3uwm8WV-2" value="" style="edgeStyle=orthogonalEdgeStyle;rounded=0;orthogonalLoop=1;jettySize=auto;html=1;" edge="1" parent="dIhKAnvwAG0ssE9U2dhF-1" source="m26kmbvSqdJI-3uwm8WV-3" target="m26kmbvSqdJI-3uwm8WV-4">
          <mxGeometry relative="1" as="geometry"/>
        </mxCell>
        <mxCell id="m26kmbvSqdJI-3uwm8WV-3" value="Coord ApiServer" style="rounded=1;whiteSpace=wrap;html=1;" vertex="1" parent="dIhKAnvwAG0ssE9U2dhF-1">
          <mxGeometry x="530" y="270" width="120" height="60" as="geometry"/>
        </mxCell>
        <mxCell id="m26kmbvSqdJI-3uwm8WV-4" value="Coord&lt;br&gt;Etcd" style="shape=cylinder;whiteSpace=wrap;html=1;boundedLbl=1;backgroundOutline=1;" vertex="1" parent="dIhKAnvwAG0ssE9U2dhF-1">
          <mxGeometry x="560" y="160" width="60" height="80" as="geometry"/>
        </mxCell>
        <mxCell id="m26kmbvSqdJI-3uwm8WV-7" value="" style="edgeStyle=orthogonalEdgeStyle;rounded=0;orthogonalLoop=1;jettySize=auto;html=1;" edge="1" parent="dIhKAnvwAG0ssE9U2dhF-1" target="m26kmbvSqdJI-3uwm8WV-3">
          <mxGeometry relative="1" as="geometry">
            <mxPoint x="700" y="300" as="sourcePoint"/>
          </mxGeometry>
        </mxCell>
        <mxCell id="m26kmbvSqdJI-3uwm8WV-8" value="Mpc Job &lt;br&gt;Controller" style="rounded=1;whiteSpace=wrap;html=1;" vertex="1" parent="dIhKAnvwAG0ssE9U2dhF-1">
          <mxGeometry x="708.5" y="232.99999999999994" width="120" height="60" as="geometry"/>
        </mxCell>
        <mxCell id="m26kmbvSqdJI-3uwm8WV-9" value="Mpc Model &lt;br&gt;Controller" style="rounded=1;whiteSpace=wrap;html=1;" vertex="1" parent="dIhKAnvwAG0ssE9U2dhF-1">
          <mxGeometry x="841.5" y="232.99999999999994" width="120" height="60" as="geometry"/>
        </mxCell>
        <mxCell id="m26kmbvSqdJI-3uwm8WV-10" value="Gateway &lt;br&gt;Controller" style="rounded=1;whiteSpace=wrap;html=1;fillColor=#ffff88;strokeColor=#36393d;" vertex="1" parent="dIhKAnvwAG0ssE9U2dhF-1">
          <mxGeometry x="708.5" y="306.99999999999994" width="120" height="60" as="geometry"/>
        </mxCell>
        <mxCell id="m26kmbvSqdJI-3uwm8WV-11" value="Mpc XXX&lt;br&gt;&amp;nbsp;Controller" style="rounded=1;whiteSpace=wrap;html=1;" vertex="1" parent="dIhKAnvwAG0ssE9U2dhF-1">
          <mxGeometry x="841.5" y="306.99999999999994" width="120" height="60" as="geometry"/>
        </mxCell>
        <mxCell id="m26kmbvSqdJI-3uwm8WV-15" value="Coord Controllers" style="text;html=1;strokeColor=none;fillColor=none;align=center;verticalAlign=middle;whiteSpace=wrap;rounded=0;" vertex="1" parent="dIhKAnvwAG0ssE9U2dhF-1">
          <mxGeometry x="785" y="210" width="100" height="20" as="geometry"/>
        </mxCell>
        <mxCell id="kNOLw_CiE20GCa9g5N1f-12" value="" style="group" vertex="1" connectable="0" parent="dIhKAnvwAG0ssE9U2dhF-1">
          <mxGeometry x="-200" y="524" width="737.5" height="308.99999999999994" as="geometry"/>
        </mxCell>
        <mxCell id="5zYgrD-W18In-kNy7Zty-0" value="Coord Kubelet" style="rounded=1;whiteSpace=wrap;html=1;" vertex="1" parent="kNOLw_CiE20GCa9g5N1f-12">
          <mxGeometry x="310" width="120" height="60" as="geometry"/>
        </mxCell>
        <mxCell id="5zYgrD-W18In-kNy7Zty-1" value="Gateway" style="rounded=1;whiteSpace=wrap;html=1;fillColor=#ffff88;strokeColor=#36393d;" vertex="1" parent="kNOLw_CiE20GCa9g5N1f-12">
          <mxGeometry x="540" width="120" height="60" as="geometry"/>
        </mxCell>
        <mxCell id="18eKXyHTB02QMJTU4oUA-1" value="K8S ApiServer" style="rounded=1;whiteSpace=wrap;html=1;fillColor=#f9f7ed;strokeColor=#36393d;" vertex="1" parent="kNOLw_CiE20GCa9g5N1f-12">
          <mxGeometry x="310" y="114.99999999999994" width="120" height="60" as="geometry"/>
        </mxCell>
        <mxCell id="aTvUfyU-tUAv-6lmIIq3-1" value="" style="edgeStyle=orthogonalEdgeStyle;rounded=0;orthogonalLoop=1;jettySize=auto;html=1;startArrow=none;startFill=0;" edge="1" parent="kNOLw_CiE20GCa9g5N1f-12" source="5zYgrD-W18In-kNy7Zty-0" target="18eKXyHTB02QMJTU4oUA-1">
          <mxGeometry relative="1" as="geometry"/>
        </mxCell>
        <mxCell id="rqjHizNQqNX6t76Fy-KZ-0" value="" style="edgeStyle=orthogonalEdgeStyle;rounded=0;orthogonalLoop=1;jettySize=auto;html=1;startArrow=none;startFill=0;" edge="1" parent="kNOLw_CiE20GCa9g5N1f-12" source="18eKXyHTB02QMJTU4oUA-3" target="18eKXyHTB02QMJTU4oUA-1">
          <mxGeometry relative="1" as="geometry"/>
        </mxCell>
        <mxCell id="18eKXyHTB02QMJTU4oUA-3" value="" style="rounded=0;whiteSpace=wrap;html=1;" vertex="1" parent="kNOLw_CiE20GCa9g5N1f-12">
          <mxGeometry y="60" width="270" height="170" as="geometry"/>
        </mxCell>
        <mxCell id="18eKXyHTB02QMJTU4oUA-4" value="Mpc Job Party&amp;nbsp;&lt;br&gt;Controller" style="rounded=1;whiteSpace=wrap;html=1;" vertex="1" parent="kNOLw_CiE20GCa9g5N1f-12">
          <mxGeometry x="8.5" y="83" width="120" height="60" as="geometry"/>
        </mxCell>
        <mxCell id="18eKXyHTB02QMJTU4oUA-5" value="Mpc Model Party&amp;nbsp;&lt;br&gt;Controller" style="rounded=1;whiteSpace=wrap;html=1;" vertex="1" parent="kNOLw_CiE20GCa9g5N1f-12">
          <mxGeometry x="141.5" y="83" width="120" height="60" as="geometry"/>
        </mxCell>
        <mxCell id="18eKXyHTB02QMJTU4oUA-6" value="K8S Deployment&amp;nbsp;&lt;br&gt;Controller" style="rounded=1;whiteSpace=wrap;html=1;fillColor=#f9f7ed;strokeColor=#36393d;" vertex="1" parent="kNOLw_CiE20GCa9g5N1f-12">
          <mxGeometry x="8.5" y="156.99999999999994" width="120" height="60" as="geometry"/>
        </mxCell>
        <mxCell id="18eKXyHTB02QMJTU4oUA-7" value="K8S XXX&lt;br&gt;&amp;nbsp;Controller" style="rounded=1;whiteSpace=wrap;html=1;fillColor=#f9f7ed;strokeColor=#36393d;" vertex="1" parent="kNOLw_CiE20GCa9g5N1f-12">
          <mxGeometry x="141.5" y="156.99999999999994" width="120" height="60" as="geometry"/>
        </mxCell>
        <mxCell id="18eKXyHTB02QMJTU4oUA-8" value="K8S Controllers" style="text;html=1;strokeColor=none;fillColor=none;align=center;verticalAlign=middle;whiteSpace=wrap;rounded=0;" vertex="1" parent="kNOLw_CiE20GCa9g5N1f-12">
          <mxGeometry x="85" y="60" width="100" height="20" as="geometry"/>
        </mxCell>
        <mxCell id="kNOLw_CiE20GCa9g5N1f-6" style="edgeStyle=orthogonalEdgeStyle;rounded=0;orthogonalLoop=1;jettySize=auto;html=1;exitX=0.5;exitY=1;exitDx=0;exitDy=0;startArrow=none;startFill=0;" edge="1" parent="kNOLw_CiE20GCa9g5N1f-12" source="rqjHizNQqNX6t76Fy-KZ-1" target="18eKXyHTB02QMJTU4oUA-1">
          <mxGeometry relative="1" as="geometry"/>
        </mxCell>
        <mxCell id="rqjHizNQqNX6t76Fy-KZ-1" value="K8S Scheduler" style="rounded=1;whiteSpace=wrap;html=1;fillColor=#f9f7ed;strokeColor=#36393d;" vertex="1" parent="kNOLw_CiE20GCa9g5N1f-12">
          <mxGeometry x="60" y="248.99999999999994" width="120" height="60" as="geometry"/>
        </mxCell>
        <mxCell id="kNOLw_CiE20GCa9g5N1f-5" style="edgeStyle=orthogonalEdgeStyle;rounded=0;orthogonalLoop=1;jettySize=auto;html=1;exitX=0.5;exitY=1;exitDx=0;exitDy=0;startArrow=none;startFill=0;" edge="1" parent="kNOLw_CiE20GCa9g5N1f-12" source="rqjHizNQqNX6t76Fy-KZ-3" target="18eKXyHTB02QMJTU4oUA-1">
          <mxGeometry relative="1" as="geometry"/>
        </mxCell>
        <mxCell id="rqjHizNQqNX6t76Fy-KZ-3" value="K8S Kubelet" style="rounded=1;whiteSpace=wrap;html=1;fillColor=#f9f7ed;strokeColor=#36393d;" vertex="1" parent="kNOLw_CiE20GCa9g5N1f-12">
          <mxGeometry x="462.5" y="248.99999999999994" width="120" height="60" as="geometry"/>
        </mxCell>
        <mxCell id="kNOLw_CiE20GCa9g5N1f-8" style="edgeStyle=orthogonalEdgeStyle;rounded=0;orthogonalLoop=1;jettySize=auto;html=1;exitX=0.5;exitY=0;exitDx=0;exitDy=0;entryX=0.5;entryY=1;entryDx=0;entryDy=0;startArrow=classic;startFill=1;" edge="1" parent="kNOLw_CiE20GCa9g5N1f-12" source="rqjHizNQqNX6t76Fy-KZ-5" target="5zYgrD-W18In-kNy7Zty-1">
          <mxGeometry relative="1" as="geometry"/>
        </mxCell>
        <mxCell id="rqjHizNQqNX6t76Fy-KZ-5" value="Mpc Pod" style="rounded=1;whiteSpace=wrap;html=1;" vertex="1" parent="kNOLw_CiE20GCa9g5N1f-12">
          <mxGeometry x="462.5" y="114.99999999999994" width="120" height="60" as="geometry"/>
        </mxCell>
        <mxCell id="kNOLw_CiE20GCa9g5N1f-2" value="" style="edgeStyle=orthogonalEdgeStyle;rounded=0;orthogonalLoop=1;jettySize=auto;html=1;startArrow=none;startFill=0;" edge="1" parent="kNOLw_CiE20GCa9g5N1f-12" source="rqjHizNQqNX6t76Fy-KZ-3" target="rqjHizNQqNX6t76Fy-KZ-5">
          <mxGeometry relative="1" as="geometry"/>
        </mxCell>
        <mxCell id="kNOLw_CiE20GCa9g5N1f-7" style="edgeStyle=orthogonalEdgeStyle;rounded=0;orthogonalLoop=1;jettySize=auto;html=1;exitX=0.5;exitY=1;exitDx=0;exitDy=0;startArrow=none;startFill=0;" edge="1" parent="kNOLw_CiE20GCa9g5N1f-12" source="hqMkMVQK9WDJ8uWxVkiv-2">
          <mxGeometry relative="1" as="geometry">
            <mxPoint x="370" y="174.99999999999994" as="targetPoint"/>
          </mxGeometry>
        </mxCell>
        <mxCell id="hqMkMVQK9WDJ8uWxVkiv-2" value="K8S Kubelet" style="rounded=1;whiteSpace=wrap;html=1;fillColor=#f9f7ed;strokeColor=#36393d;" vertex="1" parent="kNOLw_CiE20GCa9g5N1f-12">
          <mxGeometry x="617.5" y="248.99999999999994" width="120" height="60" as="geometry"/>
        </mxCell>
        <mxCell id="kNOLw_CiE20GCa9g5N1f-9" style="edgeStyle=orthogonalEdgeStyle;rounded=0;orthogonalLoop=1;jettySize=auto;html=1;exitX=0.5;exitY=0;exitDx=0;exitDy=0;entryX=0.5;entryY=1;entryDx=0;entryDy=0;startArrow=classic;startFill=1;" edge="1" parent="kNOLw_CiE20GCa9g5N1f-12" source="hqMkMVQK9WDJ8uWxVkiv-3" target="5zYgrD-W18In-kNy7Zty-1">
          <mxGeometry relative="1" as="geometry"/>
        </mxCell>
        <mxCell id="hqMkMVQK9WDJ8uWxVkiv-3" value="Mpc Pod" style="rounded=1;whiteSpace=wrap;html=1;" vertex="1" parent="kNOLw_CiE20GCa9g5N1f-12">
          <mxGeometry x="617.5" y="114.99999999999994" width="120" height="60" as="geometry"/>
        </mxCell>
        <mxCell id="kNOLw_CiE20GCa9g5N1f-3" value="" style="edgeStyle=orthogonalEdgeStyle;rounded=0;orthogonalLoop=1;jettySize=auto;html=1;startArrow=none;startFill=0;" edge="1" parent="kNOLw_CiE20GCa9g5N1f-12" source="hqMkMVQK9WDJ8uWxVkiv-2" target="hqMkMVQK9WDJ8uWxVkiv-3">
          <mxGeometry relative="1" as="geometry"/>
        </mxCell>
        <mxCell id="eAGrlt0A1EeLlwHlp6II-0" value="Institution K8S" style="text;html=1;strokeColor=none;fillColor=none;align=center;verticalAlign=middle;whiteSpace=wrap;rounded=0;" vertex="1" parent="dIhKAnvwAG0ssE9U2dhF-1">
          <mxGeometry x="95" y="860" width="150" height="20" as="geometry"/>
        </mxCell>
        <mxCell id="eAGrlt0A1EeLlwHlp6II-1" value="" style="rounded=0;whiteSpace=wrap;html=1;fillColor=#eeeeee;strokeColor=#36393d;" vertex="1" parent="dIhKAnvwAG0ssE9U2dhF-1">
          <mxGeometry x="660" y="510" width="760" height="370" as="geometry"/>
        </mxCell>
        <mxCell id="eAGrlt0A1EeLlwHlp6II-26" value="Institution K8S" style="text;html=1;strokeColor=none;fillColor=none;align=center;verticalAlign=middle;whiteSpace=wrap;rounded=0;" vertex="1" parent="dIhKAnvwAG0ssE9U2dhF-1">
          <mxGeometry x="965" y="860" width="150" height="20" as="geometry"/>
        </mxCell>
        <mxCell id="eAGrlt0A1EeLlwHlp6II-29" value="" style="group" vertex="1" connectable="0" parent="dIhKAnvwAG0ssE9U2dhF-1">
          <mxGeometry x="660" y="524" width="760" height="309" as="geometry"/>
        </mxCell>
        <mxCell id="eAGrlt0A1EeLlwHlp6II-3" value="Coord Kubelet" style="rounded=1;whiteSpace=wrap;html=1;" vertex="1" parent="eAGrlt0A1EeLlwHlp6II-29">
          <mxGeometry x="330" width="120" height="60" as="geometry"/>
        </mxCell>
        <mxCell id="eAGrlt0A1EeLlwHlp6II-4" value="Gateway" style="rounded=1;whiteSpace=wrap;html=1;fillColor=#ffff88;strokeColor=#36393d;" vertex="1" parent="eAGrlt0A1EeLlwHlp6II-29">
          <mxGeometry x="97.5" width="120" height="60" as="geometry"/>
        </mxCell>
        <mxCell id="eAGrlt0A1EeLlwHlp6II-5" value="K8S ApiServer" style="rounded=1;whiteSpace=wrap;html=1;fillColor=#f9f7ed;strokeColor=#36393d;" vertex="1" parent="eAGrlt0A1EeLlwHlp6II-29">
          <mxGeometry x="330" y="115" width="120" height="60" as="geometry"/>
        </mxCell>
        <mxCell id="eAGrlt0A1EeLlwHlp6II-6" value="" style="edgeStyle=orthogonalEdgeStyle;rounded=0;orthogonalLoop=1;jettySize=auto;html=1;startArrow=none;startFill=0;" edge="1" parent="eAGrlt0A1EeLlwHlp6II-29" source="eAGrlt0A1EeLlwHlp6II-3" target="eAGrlt0A1EeLlwHlp6II-5">
          <mxGeometry relative="1" as="geometry"/>
        </mxCell>
        <mxCell id="eAGrlt0A1EeLlwHlp6II-7" value="" style="edgeStyle=orthogonalEdgeStyle;rounded=0;orthogonalLoop=1;jettySize=auto;html=1;startArrow=none;startFill=0;" edge="1" parent="eAGrlt0A1EeLlwHlp6II-29" source="eAGrlt0A1EeLlwHlp6II-8" target="eAGrlt0A1EeLlwHlp6II-5">
          <mxGeometry relative="1" as="geometry"/>
        </mxCell>
        <mxCell id="eAGrlt0A1EeLlwHlp6II-8" value="" style="rounded=0;whiteSpace=wrap;html=1;" vertex="1" parent="eAGrlt0A1EeLlwHlp6II-29">
          <mxGeometry x="490" y="60" width="270" height="170" as="geometry"/>
        </mxCell>
        <mxCell id="eAGrlt0A1EeLlwHlp6II-9" value="Mpc Job Party&amp;nbsp;&lt;br&gt;Controller" style="rounded=1;whiteSpace=wrap;html=1;" vertex="1" parent="eAGrlt0A1EeLlwHlp6II-29">
          <mxGeometry x="498.5" y="83" width="120" height="60" as="geometry"/>
        </mxCell>
        <mxCell id="eAGrlt0A1EeLlwHlp6II-10" value="Mpc Model Party&amp;nbsp;&lt;br&gt;Controller" style="rounded=1;whiteSpace=wrap;html=1;" vertex="1" parent="eAGrlt0A1EeLlwHlp6II-29">
          <mxGeometry x="631.5" y="83" width="120" height="60" as="geometry"/>
        </mxCell>
        <mxCell id="eAGrlt0A1EeLlwHlp6II-11" value="K8S Deployment&amp;nbsp;&lt;br&gt;Controller" style="rounded=1;whiteSpace=wrap;html=1;fillColor=#f9f7ed;strokeColor=#36393d;" vertex="1" parent="eAGrlt0A1EeLlwHlp6II-29">
          <mxGeometry x="498.5" y="157" width="120" height="60" as="geometry"/>
        </mxCell>
        <mxCell id="eAGrlt0A1EeLlwHlp6II-12" value="K8S XXX&lt;br&gt;&amp;nbsp;Controller" style="rounded=1;whiteSpace=wrap;html=1;fillColor=#f9f7ed;strokeColor=#36393d;" vertex="1" parent="eAGrlt0A1EeLlwHlp6II-29">
          <mxGeometry x="631.5" y="157" width="120" height="60" as="geometry"/>
        </mxCell>
        <mxCell id="eAGrlt0A1EeLlwHlp6II-13" value="K8S Controllers" style="text;html=1;strokeColor=none;fillColor=none;align=center;verticalAlign=middle;whiteSpace=wrap;rounded=0;" vertex="1" parent="eAGrlt0A1EeLlwHlp6II-29">
          <mxGeometry x="575" y="60" width="100" height="20" as="geometry"/>
        </mxCell>
        <mxCell id="eAGrlt0A1EeLlwHlp6II-14" style="edgeStyle=orthogonalEdgeStyle;rounded=0;orthogonalLoop=1;jettySize=auto;html=1;exitX=0.5;exitY=1;exitDx=0;exitDy=0;startArrow=none;startFill=0;" edge="1" parent="eAGrlt0A1EeLlwHlp6II-29" source="eAGrlt0A1EeLlwHlp6II-15" target="eAGrlt0A1EeLlwHlp6II-5">
          <mxGeometry relative="1" as="geometry"/>
        </mxCell>
        <mxCell id="eAGrlt0A1EeLlwHlp6II-15" value="K8S Scheduler" style="rounded=1;whiteSpace=wrap;html=1;fillColor=#f9f7ed;strokeColor=#36393d;" vertex="1" parent="eAGrlt0A1EeLlwHlp6II-29">
          <mxGeometry x="550" y="249" width="120" height="60" as="geometry"/>
        </mxCell>
        <mxCell id="eAGrlt0A1EeLlwHlp6II-28" style="edgeStyle=orthogonalEdgeStyle;rounded=0;orthogonalLoop=1;jettySize=auto;html=1;exitX=0.5;exitY=1;exitDx=0;exitDy=0;entryX=0.5;entryY=1;entryDx=0;entryDy=0;startArrow=none;startFill=0;" edge="1" parent="eAGrlt0A1EeLlwHlp6II-29" source="eAGrlt0A1EeLlwHlp6II-17" target="eAGrlt0A1EeLlwHlp6II-5">
          <mxGeometry relative="1" as="geometry"/>
        </mxCell>
        <mxCell id="eAGrlt0A1EeLlwHlp6II-17" value="K8S Kubelet" style="rounded=1;whiteSpace=wrap;html=1;fillColor=#f9f7ed;strokeColor=#36393d;" vertex="1" parent="eAGrlt0A1EeLlwHlp6II-29">
          <mxGeometry x="20" y="249" width="120" height="60" as="geometry"/>
        </mxCell>
        <mxCell id="eAGrlt0A1EeLlwHlp6II-18" style="edgeStyle=orthogonalEdgeStyle;rounded=0;orthogonalLoop=1;jettySize=auto;html=1;exitX=0.5;exitY=0;exitDx=0;exitDy=0;entryX=0.5;entryY=1;entryDx=0;entryDy=0;startArrow=classic;startFill=1;" edge="1" parent="eAGrlt0A1EeLlwHlp6II-29" source="eAGrlt0A1EeLlwHlp6II-19" target="eAGrlt0A1EeLlwHlp6II-4">
          <mxGeometry relative="1" as="geometry"/>
        </mxCell>
        <mxCell id="eAGrlt0A1EeLlwHlp6II-19" value="Mpc Pod" style="rounded=1;whiteSpace=wrap;html=1;" vertex="1" parent="eAGrlt0A1EeLlwHlp6II-29">
          <mxGeometry x="20" y="115" width="120" height="60" as="geometry"/>
        </mxCell>
        <mxCell id="eAGrlt0A1EeLlwHlp6II-20" value="" style="edgeStyle=orthogonalEdgeStyle;rounded=0;orthogonalLoop=1;jettySize=auto;html=1;startArrow=none;startFill=0;" edge="1" parent="eAGrlt0A1EeLlwHlp6II-29" source="eAGrlt0A1EeLlwHlp6II-17" target="eAGrlt0A1EeLlwHlp6II-19">
          <mxGeometry relative="1" as="geometry"/>
        </mxCell>
        <mxCell id="eAGrlt0A1EeLlwHlp6II-27" style="edgeStyle=orthogonalEdgeStyle;rounded=0;orthogonalLoop=1;jettySize=auto;html=1;exitX=0.5;exitY=1;exitDx=0;exitDy=0;entryX=0.5;entryY=1;entryDx=0;entryDy=0;startArrow=none;startFill=0;" edge="1" parent="eAGrlt0A1EeLlwHlp6II-29" source="eAGrlt0A1EeLlwHlp6II-22" target="eAGrlt0A1EeLlwHlp6II-5">
          <mxGeometry relative="1" as="geometry"/>
        </mxCell>
        <mxCell id="eAGrlt0A1EeLlwHlp6II-22" value="K8S Kubelet" style="rounded=1;whiteSpace=wrap;html=1;fillColor=#f9f7ed;strokeColor=#36393d;" vertex="1" parent="eAGrlt0A1EeLlwHlp6II-29">
          <mxGeometry x="175" y="249" width="120" height="60" as="geometry"/>
        </mxCell>
        <mxCell id="eAGrlt0A1EeLlwHlp6II-23" style="edgeStyle=orthogonalEdgeStyle;rounded=0;orthogonalLoop=1;jettySize=auto;html=1;exitX=0.5;exitY=0;exitDx=0;exitDy=0;entryX=0.5;entryY=1;entryDx=0;entryDy=0;startArrow=classic;startFill=1;" edge="1" parent="eAGrlt0A1EeLlwHlp6II-29" source="eAGrlt0A1EeLlwHlp6II-24" target="eAGrlt0A1EeLlwHlp6II-4">
          <mxGeometry relative="1" as="geometry"/>
        </mxCell>
        <mxCell id="eAGrlt0A1EeLlwHlp6II-24" value="Mpc Pod" style="rounded=1;whiteSpace=wrap;html=1;" vertex="1" parent="eAGrlt0A1EeLlwHlp6II-29">
          <mxGeometry x="175" y="115" width="120" height="60" as="geometry"/>
        </mxCell>
        <mxCell id="eAGrlt0A1EeLlwHlp6II-25" value="" style="edgeStyle=orthogonalEdgeStyle;rounded=0;orthogonalLoop=1;jettySize=auto;html=1;startArrow=none;startFill=0;" edge="1" parent="eAGrlt0A1EeLlwHlp6II-29" source="eAGrlt0A1EeLlwHlp6II-22" target="eAGrlt0A1EeLlwHlp6II-24">
          <mxGeometry relative="1" as="geometry"/>
        </mxCell>
        <mxCell id="eAGrlt0A1EeLlwHlp6II-30" style="edgeStyle=orthogonalEdgeStyle;rounded=0;orthogonalLoop=1;jettySize=auto;html=1;exitX=1;exitY=0.5;exitDx=0;exitDy=0;entryX=0;entryY=0.5;entryDx=0;entryDy=0;startArrow=classic;startFill=1;" edge="1" parent="dIhKAnvwAG0ssE9U2dhF-1" source="5zYgrD-W18In-kNy7Zty-1" target="eAGrlt0A1EeLlwHlp6II-4">
          <mxGeometry relative="1" as="geometry"/>
        </mxCell>
        <mxCell id="eAGrlt0A1EeLlwHlp6II-31" style="edgeStyle=orthogonalEdgeStyle;rounded=0;orthogonalLoop=1;jettySize=auto;html=1;exitX=0.5;exitY=0;exitDx=0;exitDy=0;entryX=0.5;entryY=1;entryDx=0;entryDy=0;startArrow=none;startFill=0;" edge="1" parent="dIhKAnvwAG0ssE9U2dhF-1" source="5zYgrD-W18In-kNy7Zty-0" target="m26kmbvSqdJI-3uwm8WV-3">
          <mxGeometry relative="1" as="geometry"/>
        </mxCell>
        <mxCell id="eAGrlt0A1EeLlwHlp6II-32" style="edgeStyle=orthogonalEdgeStyle;rounded=0;orthogonalLoop=1;jettySize=auto;html=1;exitX=0.5;exitY=0;exitDx=0;exitDy=0;entryX=0.5;entryY=1;entryDx=0;entryDy=0;startArrow=none;startFill=0;" edge="1" parent="dIhKAnvwAG0ssE9U2dhF-1" source="eAGrlt0A1EeLlwHlp6II-3" target="m26kmbvSqdJI-3uwm8WV-3">
          <mxGeometry relative="1" as="geometry"/>
        </mxCell>
        <mxCell id="eAGrlt0A1EeLlwHlp6II-33" style="edgeStyle=orthogonalEdgeStyle;rounded=0;orthogonalLoop=1;jettySize=auto;html=1;exitX=0.5;exitY=0;exitDx=0;exitDy=0;startArrow=none;startFill=0;entryX=0.5;entryY=1;entryDx=0;entryDy=0;" edge="1" parent="dIhKAnvwAG0ssE9U2dhF-1" source="eAGrlt0A1EeLlwHlp6II-4" target="m26kmbvSqdJI-3uwm8WV-3">
          <mxGeometry relative="1" as="geometry">
            <mxPoint x="500" y="330" as="targetPoint"/>
          </mxGeometry>
        </mxCell>
        <mxCell id="eAGrlt0A1EeLlwHlp6II-34" style="edgeStyle=orthogonalEdgeStyle;rounded=0;orthogonalLoop=1;jettySize=auto;html=1;exitX=0.5;exitY=0;exitDx=0;exitDy=0;entryX=0.5;entryY=1;entryDx=0;entryDy=0;startArrow=none;startFill=0;" edge="1" parent="dIhKAnvwAG0ssE9U2dhF-1" source="5zYgrD-W18In-kNy7Zty-1" target="m26kmbvSqdJI-3uwm8WV-3">
          <mxGeometry relative="1" as="geometry"/>
        </mxCell>
      </root>
    </mxGraphModel>
  </diagram>
</mxfile>
